{
  "accessors": [
    {
      "bufferView": 2,
      "componentType": 5126,
      "count": 4857,
      "max": [
        0.11678300052881241,
        0.14031000435352325,
        -1.9029519557952881
      ],
      "min": [
        -0.16085800528526306,
        -0.19673199951648712,
        -2.1839261054992676
      ],
      "type": "VEC3"
    },
    {
      "bufferView": 2,
      "byteOffset": 58284,
      "componentType": 5126,
      "count": 4857,
      "max": [
        0.99981445074081421,
        0.99996232986450195,
        0.9997672438621521
      ],
      "min": [
        -0.99999600648880005,
        -0.99987590312957764,
        -0.99986749887466431
      ],
      "type": "VEC3"
    },
    {
      "bufferView": 3,
      "componentType": 5126,
      "count": 4857,
      "max": [
        0.99998527765274048,
        0.99986481666564941,
        0.99869608879089355,
        1
      ],
      "min": [
        -0.99933338165283203,
        -0.99905753135681152,
        -0.99964886903762817,
        -1
      ],
      "type": "VEC4"
    },
    {
      "bufferView": 3,
      "byteOffset": 77712,
      "componentType": 5126,
      "count": 4857,
      "max": [
        0.99215686321258545,
        0.96078431606292725,
        0.83137255907058716,
        1
      ],
      "min": [
        0.027450980618596077,
        0.011764706112444401,
        0,
        1
      ],
      "type": "VEC4"
    },
    {
      "bufferView": 1,
      "componentType": 5126,
      "count": 4857,
      "max": [
        0.99996101856231689,
        0.94712501764297485
      ],
      "min": [
        7.0000000960135367e-06,
        4.0999999328050762e-05
      ],
      "type": "VEC2"
    },
    {
      "bufferView": 0,
      "componentType": 5125,
      "count": 25026,
      "max": [
        4856
      ],
      "min": [
        0
      ],
      "type": "SCALAR"
    }
  ],
  "asset": {
    "extras": {
      "author": "Tsuyoshi Hashiguchi (https://sketchfab.com/hashiguchi)",
      "license": "CC-BY-4.0 (http://creativecommons.org/licenses/by/4.0/)",
      "source": "https://sketchfab.com/3d-models/heimioporus-japonicusbeni-iguchi-3de3b57054624faf8aa88bb032f9c678",
      "title": "Heimioporus Japonicus(Beni Iguchi)"
    },
    "generator": "Sketchfab-6.34.0",
    "version": "2.0"
  },
  "bufferViews": [
    {
      "buffer": 0,
      "byteLength": 100104,
      "byteOffset": 0,
      "name": "floatBufferViews",
      "target": 34963
    },
    {
      "buffer": 0,
      "byteLength": 38856,
      "byteOffset": 100104,
      "byteStride": 8,
      "name": "floatBufferViews",
      "target": 34962
    },
    {
      "buffer": 0,
      "byteLength": 116568,
      "byteOffset": 138960,
      "byteStride": 12,
      "name": "floatBufferViews",
      "target": 34962
    },
    {
      "buffer": 0,
      "byteLength": 155424,
      "byteOffset": 255528,
      "byteStride": 16,
      "name": "floatBufferViews",
      "target": 34962
    }
  ],
  "buffers": [
    {
      "byteLength": 410952,
      "uri": "scene.bin"
    }
  ],
  "extensionsUsed": [
    "KHR_materials_unlit"
  ],
  "images": [
    {
      "uri": "textures/material_0_baseColor.jpeg"
    }
  ],
  "materials": [
    {
      "doubleSided": true,
      "emissiveFactor": [
        0,
        0,
        0
      ],
      "extensions": {
        "KHR_materials_unlit": {}
      },
      "name": "material_0",
      "pbrMetallicRoughness": {
        "baseColorFactor": [
          1,
          1,
          1,
          1
        ],
        "baseColorTexture": {
          "index": 0,
          "texCoord": 0
        },
        "metallicFactor": 0,
        "roughnessFactor": 1
      }
    }
  ],
  "meshes": [
    {
      "primitives": [
        {
          "attributes": {
            "COLOR_0": 3,
            "NORMAL": 1,
            "POSITION": 0,
            "TANGENT": 2,
            "TEXCOORD_0": 4
          },
          "indices": 5,
          "material": 0,
          "mode": 4
        }
      ]
    }
  ],
  "nodes": [
    {
      "children": [
        1
      ],
      "name": "RootNode (gltf orientation matrix)",
      "rotation": [
        -0.70710678118654746,
        -0,
        -0,
        0.70710678118654757
      ]
    },
    {
      "children": [
        2
      ],
      "matrix": [
        1,
        -2.832769343193999e-16,
        1.6081226229577292e-16,
        0,
        2.832769343193999e-16,
        1,
        1.6081226229577292e-16,
        0,
        -1.6081226229577292e-16,
        -1.6081226229577292e-16,
        1,
        0,
        -5.8286708792820718e-16,
        0,
        -3.2612801348363973e-16,
        1
      ],
      "name": "RootNode (model correction matrix)"
    },
    {
      "children": [
        3
      ],
      "matrix": [
        1,
        0,
        0,
        0,
        0,
        0,
        1,
        0,
        0,
        -1,
        0,
        0,
        0,
        0,
        0,
        1
      ],
      "name": "Heimioporus japonicus(BeniIguchi).wrl.cleaner.materialmerger.gles"
    },
    {
      "mesh": 0,
      "name": ""
    }
  ],
  "samplers": [
    {
      "magFilter": 9729,
      "minFilter": 9987,
      "wrapS": 10497,
      "wrapT": 10497
    }
  ],
  "scene": 0,
  "scenes": [
    {
      "name": "OSG_Scene",
      "nodes": [
        0
      ]
    }
  ],
  "textures": [
    {
      "sampler": 0,
      "source": 0
    }
  ]
}

