{
  "accessors": [
    {
      "bufferView": 2,
      "componentType": 5126,
      "count": 376,
      "max": [
        4.139967918395996,
        6.946642875671387,
        4.208085060119629
      ],
      "min": [
        -4.070923328399658,
        0.0,
        -4.03481912612915
      ],
      "type": "VEC3"
    },
    {
      "bufferView": 2,
      "byteOffset": 4512,
      "componentType": 5126,
      "count": 376,
      "max": [
        0.992319643497467,
        0.9945314526557922,
        0.9888089895248413
      ],
      "min": [
        -0.988124430179596,
        -1.0,
        -0.9972310662269592
      ],
      "type": "VEC3"
    },
    {
      "bufferView": 1,
      "componentType": 5126,
      "count": 376,
      "max": [
        0.9860402345657349,
        0.9727298021316528
      ],
      "min": [
        0.02150934934616089,
        0.023611007258296013
      ],
      "type": "VEC2"
    },
    {
      "bufferView": 0,
      "componentType": 5125,
      "count": 1824,
      "type": "SCALAR"
    },
    {
      "bufferView": 3,
      "componentType": 5126,
      "count": 241,
      "max": [
        10.0
      ],
      "min": [
        0.0
      ],
      "type": "SCALAR"
    },
    {
      "bufferView": 4,
      "componentType": 5126,
      "count": 241,
      "max": [
        0.0,
        0.9999784231185913,
        -0.0,
        1.0
      ],
      "min": [
        0.0,
        -0.9998056292533875,
        -0.0,
        -0.006572362035512924
      ],
      "type": "VEC4"
    },
    {
      "bufferView": 3,
      "byteOffset": 964,
      "componentType": 5126,
      "count": 240,
      "max": [
        10.0
      ],
      "min": [
        0.0416666679084301
      ],
      "type": "SCALAR"
    },
    {
      "bufferView": 4,
      "byteOffset": 3856,
      "componentType": 5126,
      "count": 240,
      "max": [
        0.0,
        0.9999784231185913,
        -0.0,
        1.0
      ],
      "min": [
        0.0,
        -0.9998055696487427,
        -0.0,
        -0.006572362035512924
      ],
      "type": "VEC4"
    }
  ],
  "animations": [
    {
      "channels": [
        {
          "sampler": 0,
          "target": {
            "node": 3,
            "path": "rotation"
          }
        }
      ],
      "name": "Action",
      "samplers": [
        {
          "input": 4,
          "interpolation": "LINEAR",
          "output": 5
        }
      ]
    },
    {
      "channels": [
        {
          "sampler": 0,
          "target": {
            "node": 3,
            "path": "rotation"
          }
        }
      ],
      "name": "EmptyAction",
      "samplers": [
        {
          "input": 6,
          "interpolation": "LINEAR",
          "output": 7
        }
      ]
    }
  ],
  "asset": {
    "extras": {
      "author": "Lucas (https://sketchfab.com/LucasRomeroDiBenedetto)",
      "license": "CC-BY-4.0 (http://creativecommons.org/licenses/by/4.0/)",
      "source": "https://sketchfab.com/3d-models/low-poly-mushroom-bad47b128a554f748af6ed0d0370671f",
      "title": "Low poly mushroom"
    },
    "generator": "Sketchfab-10.93.0",
    "version": "2.0"
  },
  "bufferViews": [
    {
      "buffer": 0,
      "byteLength": 7296,
      "name": "floatBufferViews",
      "target": 34963
    },
    {
      "buffer": 0,
      "byteLength": 3008,
      "byteOffset": 7296,
      "byteStride": 8,
      "name": "floatBufferViews",
      "target": 34962
    },
    {
      "buffer": 0,
      "byteLength": 9024,
      "byteOffset": 10304,
      "byteStride": 12,
      "name": "floatBufferViews",
      "target": 34962
    },
    {
      "buffer": 0,
      "byteLength": 1924,
      "byteOffset": 19328,
      "name": "floatBufferViews"
    },
    {
      "buffer": 0,
      "byteLength": 7696,
      "byteOffset": 21252,
      "byteStride": 16,
      "name": "floatBufferViews"
    }
  ],
  "buffers": [
    {
      "byteLength": 28948,
      "uri": "scene.bin"
    }
  ],
  "images": [
    {
      "uri": "textures/mushroom.001_baseColor.png"
    },
    {
      "uri": "textures/mushroom.001_metallicRoughness.png"
    }
  ],
  "materials": [
    {
      "doubleSided": true,
      "name": "mushroom.001",
      "occlusionTexture": {
        "index": 1
      },
      "pbrMetallicRoughness": {
        "baseColorTexture": {
          "index": 0
        },
        "metallicFactor": 0.013870395,
        "metallicRoughnessTexture": {
          "index": 1
        },
        "roughnessFactor": 0.5605174835
      }
    }
  ],
  "meshes": [
    {
      "name": "Object_0",
      "primitives": [
        {
          "attributes": {
            "NORMAL": 1,
            "POSITION": 0,
            "TEXCOORD_0": 2
          },
          "indices": 3,
          "material": 0,
          "mode": 4
        }
      ]
    }
  ],
  "nodes": [
    {
      "children": [
        1
      ],
      "matrix": [
        1.0,
        0.0,
        0.0,
        0.0,
        0.0,
        2.220446049250313e-16,
        -1.0,
        0.0,
        0.0,
        1.0,
        2.220446049250313e-16,
        0.0,
        -0.012335527688264847,
        -1.1826999752897589e-06,
        0.006052915006875992,
        1.0
      ],
      "name": "Sketchfab_model"
    },
    {
      "children": [
        2
      ],
      "name": "root"
    },
    {
      "children": [
        3
      ],
      "matrix": [
        1.0,
        0.0,
        0.0,
        0.0,
        0.0,
        2.220446049250313e-16,
        1.0,
        0.0,
        0.0,
        -1.0,
        2.220446049250313e-16,
        0.0,
        0.0,
        0.0,
        0.0,
        1.0
      ],
      "name": "GLTF_SceneRootNode"
    },
    {
      "children": [
        4
      ],
      "name": "Empty_1"
    },
    {
      "children": [
        5
      ],
      "name": "Circle_0"
    },
    {
      "mesh": 0,
      "name": "Object_5"
    }
  ],
  "samplers": [
    {
      "magFilter": 9729,
      "minFilter": 9987,
      "wrapS": 10497,
      "wrapT": 10497
    }
  ],
  "scene": 0,
  "scenes": [
    {
      "name": "Sketchfab_Scene",
      "nodes": [
        0
      ]
    }
  ],
  "textures": [
    {
      "sampler": 0,
      "source": 0
    },
    {
      "sampler": 0,
      "source": 1
    }
  ]
}
